<svg id="visual" viewBox="0 0 1920 1280" width="1920" height="1280" xmlns="http://www.w3.org/2000/svg" xmlns:xlink="http://www.w3.org/1999/xlink" version="1.1"><rect x="0" y="0" width="1920" height="1280" fill="#fffdf5"></rect><defs><linearGradient id="grad1_0" x1="33.3%" y1="0%" x2="100%" y2="100%"><stop offset="20%" stop-color="#fffdf5" stop-opacity="1"></stop><stop offset="80%" stop-color="#fffdf5" stop-opacity="1"></stop></linearGradient></defs><defs><linearGradient id="grad2_0" x1="0%" y1="0%" x2="66.7%" y2="100%"><stop offset="20%" stop-color="#fffdf5" stop-opacity="1"></stop><stop offset="80%" stop-color="#fffdf5" stop-opacity="1"></stop></linearGradient></defs><g transform="translate(1920, 0)"><path d="M0 807.6C-105.7 798 -211.4 788.4 -309.1 746.2C-406.7 703.9 -496.4 629 -540.2 540.2C-584.1 451.4 -582.1 348.8 -619 256.4C-655.9 164 -731.8 82 -807.6 0L0 0Z" fill="#ffc107"></path></g><g transform="translate(0, 1280)"><path d="M0 -807.6C110.4 -785.9 220.7 -764.2 290.5 -701.2C360.2 -638.2 389.2 -533.9 469.5 -469.5C549.8 -405.1 681.3 -380.7 746.2 -309.1C811.1 -237.5 809.3 -118.7 807.6 0L0 0Z" fill="#ffc107"></path></g></svg>